<svg width="100%" height="100%" viewBox="0 0 2156 463" version="1.1" xmlns="http://www.w3.org/2000/svg" xmlns:xlink="http://www.w3.org/1999/xlink" xml:space="preserve" xmlns:serif="http://www.serif.com/" style="fill-rule:evenodd;clip-rule:evenodd;stroke-linejoin:round;stroke-miterlimit:2;"><rect id="Artboard1" x="0" y="0" width="2155.55" height="462.971" style="fill:none;"/><g><path d="M0.417,438.501l25.315,22.488l113.227,-111.924l90.498,91.602l143.857,-143.332l21.058,21.429l13.748,-77.969l-75.994,9.519l17.191,19.491l-119.86,119.721l-90.498,-89.925l-138.542,138.9Z" style="fill:#7bd0cb;"/><path d="M140.889,245.863c18.683,20.138 67.348,83.707 91.701,107.736c-0,0 51.905,-35.9 65.906,-97.612c7.116,-31.367 4.439,-69.402 -19.822,-112.781c-4.356,-7.788 7.324,27.232 -59.719,78.172c-0,0 56.179,-120.144 -88.439,-220.057c-0.924,-0.638 11.038,39.334 -20.251,106.921c-13.285,28.697 -71.366,68.775 -87.754,93.637c-46.779,70.967 18.27,149.792 18.27,149.792l100.108,-105.808Z" style="fill:#ff4900;"/><g transform="matrix(400,0,0,400,465.955,424.753)"><path d="M0.188,-0.257l0,-0.122l0.152,0c0.02,0 0.037,-0.004 0.053,-0.012c0.016,-0.008 0.028,-0.019 0.038,-0.035c0.009,-0.015 0.014,-0.034 0.014,-0.055c-0.001,-0.022 -0.005,-0.041 -0.014,-0.056c-0.01,-0.016 -0.022,-0.027 -0.038,-0.035c-0.016,-0.008 -0.033,-0.012 -0.053,-0.012l-0.152,0l0,-0.122l0.175,0c0.044,0 0.085,0.009 0.121,0.027c0.036,0.018 0.065,0.044 0.086,0.078c0.021,0.033 0.031,0.073 0.031,0.119c0,0.046 -0.01,0.086 -0.031,0.12c-0.021,0.034 -0.05,0.06 -0.086,0.078c-0.036,0.018 -0.076,0.027 -0.121,0.027l-0.175,0Zm-0.12,0.257l-0,-0.706l0.157,0l0,0.706l-0.157,-0Z" style="fill-rule:nonzero;"/></g><g transform="matrix(400,0,0,400,709.155,424.753)"><path d="M0.294,0.011c-0.053,0 -0.1,-0.011 -0.141,-0.033c-0.041,-0.021 -0.073,-0.051 -0.096,-0.09c-0.023,-0.038 -0.035,-0.082 -0.035,-0.131c0,-0.049 0.011,-0.092 0.034,-0.13c0.023,-0.038 0.054,-0.069 0.094,-0.091c0.039,-0.022 0.084,-0.033 0.133,-0.033c0.048,-0 0.09,0.01 0.127,0.031c0.037,0.021 0.066,0.05 0.087,0.086c0.02,0.037 0.031,0.079 0.031,0.126c0,0.009 -0.001,0.018 -0.002,0.028c-0.001,0.01 -0.002,0.021 -0.005,0.033l-0.419,0.001l-0,-0.105l0.354,-0.001l-0.066,0.044c-0.001,-0.028 -0.005,-0.051 -0.013,-0.069c-0.008,-0.019 -0.02,-0.033 -0.036,-0.043c-0.015,-0.009 -0.034,-0.014 -0.057,-0.014c-0.024,-0 -0.045,0.005 -0.063,0.016c-0.018,0.011 -0.031,0.027 -0.041,0.047c-0.009,0.02 -0.014,0.045 -0.014,0.073c0,0.029 0.005,0.053 0.015,0.074c0.01,0.02 0.025,0.036 0.044,0.047c0.019,0.011 0.042,0.016 0.068,0.016c0.024,-0 0.046,-0.004 0.065,-0.012c0.019,-0.008 0.036,-0.021 0.051,-0.038l0.084,0.084c-0.024,0.028 -0.053,0.049 -0.087,0.063c-0.034,0.014 -0.071,0.021 -0.112,0.021Z" style="fill-rule:nonzero;"/></g><g transform="matrix(400,0,0,400,928.155,424.753)"><path d="M0.054,-0l0,-0.486l0.153,0l0,0.486l-0.153,-0Zm0.153,-0.267l-0.064,-0.049c0.012,-0.057 0.034,-0.102 0.064,-0.133c0.03,-0.031 0.072,-0.047 0.125,-0.047c0.023,0 0.043,0.004 0.061,0.011c0.018,0.007 0.034,0.017 0.047,0.032l-0.091,0.115c-0.007,-0.007 -0.015,-0.013 -0.025,-0.017c-0.01,-0.004 -0.021,-0.006 -0.034,-0.006c-0.025,0.001 -0.045,0.008 -0.06,0.024c-0.015,0.015 -0.023,0.039 -0.023,0.07Z" style="fill-rule:nonzero;"/></g><g transform="matrix(400,0,0,400,1100.76,424.753)"><path d="M0.116,-0l0,-0.528c0,-0.039 0.009,-0.075 0.026,-0.106c0.018,-0.032 0.043,-0.057 0.075,-0.075c0.032,-0.019 0.07,-0.028 0.114,-0.028c0.033,0 0.062,0.005 0.087,0.016c0.025,0.012 0.047,0.027 0.065,0.046l-0.096,0.096c-0.006,-0.007 -0.013,-0.012 -0.022,-0.015c-0.008,-0.004 -0.018,-0.006 -0.029,-0.006c-0.021,0 -0.037,0.006 -0.049,0.018c-0.012,0.012 -0.018,0.028 -0.018,0.049l0,0.533l-0.153,-0Zm-0.107,-0.356l-0,-0.13l0.4,-0l0,0.13l-0.4,-0Z" style="fill-rule:nonzero;"/></g><g transform="matrix(400,0,0,400,1284.56,424.753)"><path d="M0.334,0.01c-0.033,0 -0.063,-0.007 -0.091,-0.02c-0.027,-0.014 -0.049,-0.032 -0.066,-0.055c-0.017,-0.023 -0.027,-0.049 -0.03,-0.078l-0,-0.205c0.003,-0.029 0.013,-0.054 0.03,-0.076c0.017,-0.023 0.04,-0.04 0.067,-0.053c0.027,-0.013 0.057,-0.019 0.09,-0.019c0.046,0 0.087,0.011 0.123,0.033c0.035,0.022 0.063,0.052 0.083,0.09c0.021,0.038 0.031,0.082 0.031,0.131c0,0.048 -0.01,0.091 -0.031,0.129c-0.02,0.038 -0.048,0.068 -0.084,0.09c-0.035,0.022 -0.076,0.033 -0.122,0.033Zm-0.28,-0.01l0,-0.726l0.153,0l0,0.36l-0.025,0.117l0.023,0.119l-0,0.13l-0.151,0Zm0.253,-0.128c0.021,0 0.04,-0.005 0.056,-0.015c0.017,-0.01 0.03,-0.023 0.039,-0.04c0.009,-0.018 0.014,-0.038 0.014,-0.06c0,-0.022 -0.005,-0.042 -0.014,-0.059c-0.009,-0.018 -0.022,-0.031 -0.039,-0.041c-0.016,-0.01 -0.035,-0.015 -0.056,-0.015c-0.022,0 -0.041,0.005 -0.057,0.015c-0.017,0.01 -0.029,0.023 -0.039,0.04c-0.008,0.017 -0.013,0.037 -0.013,0.06c0,0.023 0.005,0.043 0.014,0.06c0.009,0.017 0.022,0.031 0.038,0.041c0.017,0.009 0.036,0.014 0.057,0.014Z" style="fill-rule:nonzero;"/></g><g transform="matrix(400,0,0,400,1522.56,424.753)"><path d="M0.257,0.01c-0.045,0 -0.085,-0.011 -0.12,-0.033c-0.035,-0.022 -0.063,-0.052 -0.083,-0.09c-0.02,-0.038 -0.03,-0.081 -0.03,-0.13c-0,-0.048 0.01,-0.092 0.03,-0.13c0.02,-0.038 0.048,-0.068 0.083,-0.09c0.035,-0.022 0.075,-0.033 0.12,-0.033c0.033,0 0.062,0.006 0.089,0.019c0.026,0.013 0.047,0.03 0.064,0.052c0.016,0.023 0.026,0.048 0.028,0.077l0,0.21c-0.002,0.029 -0.012,0.054 -0.028,0.076c-0.016,0.023 -0.038,0.04 -0.064,0.053c-0.027,0.013 -0.056,0.019 -0.089,0.019Zm0.031,-0.138c0.033,0 0.059,-0.011 0.079,-0.032c0.02,-0.022 0.03,-0.049 0.03,-0.083c0,-0.023 -0.005,-0.043 -0.014,-0.06c-0.009,-0.017 -0.021,-0.03 -0.037,-0.04c-0.017,-0.01 -0.036,-0.015 -0.058,-0.015c-0.021,0 -0.04,0.005 -0.056,0.015c-0.016,0.01 -0.029,0.023 -0.039,0.04c-0.009,0.018 -0.014,0.038 -0.014,0.06c-0,0.022 0.005,0.042 0.014,0.059c0.009,0.018 0.022,0.031 0.039,0.041c0.016,0.01 0.035,0.015 0.056,0.015Zm0.102,0.128l0.001,-0.131l0.023,-0.118l-0.024,-0.117l0.001,-0.12l0.15,0l0,0.486l-0.151,-0Z" style="fill-rule:nonzero;"/></g><g transform="matrix(400,0,0,400,1760.56,424.753)"><path d="M0.231,0.013c-0.029,-0 -0.057,-0.004 -0.085,-0.012c-0.028,-0.007 -0.053,-0.018 -0.077,-0.031c-0.023,-0.014 -0.043,-0.03 -0.06,-0.048l0.086,-0.088c0.017,0.018 0.036,0.031 0.058,0.041c0.022,0.009 0.046,0.014 0.072,0.014c0.018,-0 0.032,-0.003 0.041,-0.008c0.01,-0.005 0.015,-0.012 0.015,-0.022c-0.001,-0.012 -0.006,-0.021 -0.018,-0.028c-0.011,-0.006 -0.026,-0.011 -0.044,-0.016c-0.018,-0.005 -0.037,-0.011 -0.057,-0.017c-0.02,-0.006 -0.039,-0.014 -0.057,-0.025c-0.018,-0.011 -0.033,-0.025 -0.045,-0.044c-0.011,-0.019 -0.017,-0.043 -0.017,-0.073c0,-0.031 0.008,-0.058 0.024,-0.081c0.016,-0.023 0.039,-0.042 0.068,-0.055c0.03,-0.013 0.064,-0.02 0.104,-0.02c0.041,0.001 0.079,0.008 0.114,0.022c0.035,0.014 0.064,0.035 0.086,0.063l-0.087,0.088c-0.015,-0.018 -0.033,-0.03 -0.052,-0.038c-0.019,-0.007 -0.037,-0.011 -0.056,-0.011c-0.017,-0 -0.03,0.003 -0.038,0.008c-0.009,0.005 -0.013,0.012 -0.013,0.021c-0,0.01 0.006,0.018 0.017,0.024c0.011,0.006 0.026,0.012 0.044,0.016c0.018,0.005 0.037,0.011 0.057,0.017c0.02,0.007 0.038,0.016 0.056,0.027c0.019,0.012 0.033,0.027 0.045,0.046c0.011,0.019 0.016,0.044 0.017,0.074c-0.001,0.048 -0.018,0.085 -0.054,0.113c-0.036,0.028 -0.084,0.042 -0.145,0.042Z" style="fill-rule:nonzero;"/></g><g transform="matrix(400,0,0,400,1943.56,424.753)"><path d="M0.294,0.011c-0.053,0 -0.1,-0.011 -0.141,-0.033c-0.041,-0.021 -0.073,-0.051 -0.096,-0.09c-0.023,-0.038 -0.035,-0.082 -0.035,-0.131c0,-0.049 0.011,-0.092 0.034,-0.13c0.023,-0.038 0.054,-0.069 0.094,-0.091c0.039,-0.022 0.084,-0.033 0.133,-0.033c0.048,-0 0.09,0.01 0.127,0.031c0.037,0.021 0.066,0.05 0.087,0.086c0.02,0.037 0.031,0.079 0.031,0.126c0,0.009 -0.001,0.018 -0.002,0.028c-0.001,0.01 -0.002,0.021 -0.005,0.033l-0.419,0.001l-0,-0.105l0.354,-0.001l-0.066,0.044c-0.001,-0.028 -0.005,-0.051 -0.013,-0.069c-0.008,-0.019 -0.02,-0.033 -0.036,-0.043c-0.015,-0.009 -0.034,-0.014 -0.057,-0.014c-0.024,-0 -0.045,0.005 -0.063,0.016c-0.018,0.011 -0.031,0.027 -0.041,0.047c-0.009,0.02 -0.014,0.045 -0.014,0.073c0,0.029 0.005,0.053 0.015,0.074c0.01,0.02 0.025,0.036 0.044,0.047c0.019,0.011 0.042,0.016 0.068,0.016c0.024,-0 0.046,-0.004 0.065,-0.012c0.019,-0.008 0.036,-0.021 0.051,-0.038l0.084,0.084c-0.024,0.028 -0.053,0.049 -0.087,0.063c-0.034,0.014 -0.071,0.021 -0.112,0.021Z" style="fill-rule:nonzero;"/></g><g transform="matrix(400,0,0,400,2162.56,424.753)"></g></g></svg>